<svg xmlns="http://www.w3.org/2000/svg" xml:space="preserve" style="enable-background:new 0 0 24 24" viewBox="0 0 24 24"><path d="M0 0h24v24H0V0z" style="fill:none"/><path d="M17.6 6.3C16 4.7 13.7 3.8 11.2 4c-3.7.4-6.7 3.3-7.1 7-.6 4.9 3.2 9 7.9 9 3.2 0 5.9-1.9 7.2-4.6.3-.7-.2-1.4-.9-1.4-.4 0-.7.2-.9.5-1.1 2.4-3.8 4-6.8 3.3-2.2-.5-4-2.3-4.5-4.5C5.3 9.4 8.3 6 12 6c1.7 0 3.1.7 4.2 1.8l-1.5 1.5c-.6.6-.2 1.7.7 1.7H19c.5 0 1-.4 1-1V6.4c0-.9-1.1-1.3-1.7-.7 0 0-.6.6-.7.6z" style="opacity:.7;fill:#fff;enable-background:new"/></svg>