<svg xmlns="http://www.w3.org/2000/svg" xml:space="preserve" style="enable-background:new 0 0 24 24" viewBox="0 0 24 24"><path d="M0 0h24v24H0V0z" style="fill:none"/><path d="M18 14.4V7.2c0-.7-.5-1.2-1.2-1.2H9.6c-.7 0-1.2.5-1.2 1.2v7.2c0 .7.5 1.2 1.2 1.2h7.2c.7 0 1.2-.5 1.2-1.2zm-6.4-2.1 1 1.3 1.6-1.9c.2-.1.4-.1.5 0l1.8 2.2c.2.2 0 .5-.2.5h-6c-.2 0-.4-.3-.2-.5l1.2-1.6c-.1-.2.2-.2.3 0zM6 9v7.8c0 .7.5 1.2 1.2 1.2H15c.3 0 .6-.3.6-.6s-.3-.6-.6-.6H7.8c-.3 0-.6-.3-.6-.6V9c0-.3-.3-.6-.6-.6S6 8.7 6 9z" style="opacity:.26;enable-background:new"/></svg>