<svg xmlns="http://www.w3.org/2000/svg" width="0" height="0"><defs><symbol id="android-black" fill="#000" viewBox="0 0 24 24"><path d="m17.6 9.48 1.84-3.18c.16-.31.04-.69-.26-.85a.637.637 0 0 0-.83.22l-1.88 3.24a11.463 11.463 0 0 0-8.94 0L5.65 5.67a.643.643 0 0 0-.87-.2c-.28.18-.37.54-.22.83L6.4 9.48A10.78 10.78 0 0 0 1 18h22a10.78 10.78 0 0 0-5.4-8.52zM7 15.25a1.25 1.25 0 1 1 0-2.5 1.25 1.25 0 0 1 0 2.5zm10 0a1.25 1.25 0 1 1 0-2.5 1.25 1.25 0 0 1 0 2.5z"/></symbol><symbol id="android-white" fill="#fff" viewBox="0 0 24 24"><path d="m17.6 9.48 1.84-3.18c.16-.31.04-.69-.26-.85a.637.637 0 0 0-.83.22l-1.88 3.24a11.463 11.463 0 0 0-8.94 0L5.65 5.67a.643.643 0 0 0-.87-.2c-.28.18-.37.54-.22.83L6.4 9.48A10.78 10.78 0 0 0 1 18h22a10.78 10.78 0 0 0-5.4-8.52zM7 15.25a1.25 1.25 0 1 1 0-2.5 1.25 1.25 0 0 1 0 2.5zm10 0a1.25 1.25 0 1 1 0-2.5 1.25 1.25 0 0 1 0 2.5z"/></symbol><symbol id="apple-black" fill="#000" viewBox="0 0 24 24"><path d="M16.9 12.6c0 2.7 2.4 3.6 2.4 3.6 0 .1-.4 1.3-1.2 2.6-.8 1.1-1.5 2.2-2.8 2.2-1.2 0-1.6-.7-3-.7s-1.8.7-2.9.7c-1.2 0-2.1-1.2-2.8-2.3-1.6-2.2-2.8-6.3-1.2-9 .8-1.4 2.2-2.2 3.7-2.3 1.2 0 2.3.8 3 .8.7 0 2-1 3.4-.8.6 0 2.2.2 3.3 1.8 0 0-1.9 1.1-1.9 3.4m-2.3-6.7c.6-.8 1.1-1.8.9-2.9-.9 0-2 .6-2.7 1.4-.6.7-1.1 1.8-1 2.8 1.2 0 2.2-.6 2.8-1.3"/></symbol><symbol id="apple-white" fill="#fff" viewBox="0 0 24 24"><path d="M16.9 12.6c0 2.7 2.4 3.6 2.4 3.6 0 .1-.4 1.3-1.2 2.6-.8 1.1-1.5 2.2-2.8 2.2-1.2 0-1.6-.7-3-.7s-1.8.7-2.9.7c-1.2 0-2.1-1.2-2.8-2.3-1.6-2.2-2.8-6.3-1.2-9 .8-1.4 2.2-2.2 3.7-2.3 1.2 0 2.3.8 3 .8.7 0 2-1 3.4-.8.6 0 2.2.2 3.3 1.8 0 0-1.9 1.1-1.9 3.4m-2.3-6.7c.6-.8 1.1-1.8.9-2.9-.9 0-2 .6-2.7 1.4-.6.7-1.1 1.8-1 2.8 1.2 0 2.2-.6 2.8-1.3"/></symbol><symbol id="facebook-black" fill="#000" viewBox="0 0 24 24"><path d="M22 12c0-5.52-4.48-10-10-10S2 6.48 2 12c0 4.84 3.44 8.87 8 9.8V15H8v-3h2V9.5C10 7.57 11.57 6 13.5 6H16v3h-2c-.55 0-1 .45-1 1v2h3v3h-3v6.95c5.05-.5 9-4.76 9-9.95z"/></symbol><symbol id="facebook-white" fill="#fff" viewBox="0 0 24 24"><path d="M22 12c0-5.52-4.48-10-10-10S2 6.48 2 12c0 4.84 3.44 8.87 8 9.8V15H8v-3h2V9.5C10 7.57 11.57 6 13.5 6H16v3h-2c-.55 0-1 .45-1 1v2h3v3h-3v6.95c5.05-.5 9-4.76 9-9.95z"/></symbol><symbol id="instagram-black" fill="#000" viewBox="0 0 24 24"><path d="M16.3 2.4H7.7c-2.9 0-5.3 2.4-5.3 5.3v8.6c0 2.9 2.4 5.3 5.3 5.3h8.6c2.9 0 5.3-2.4 5.3-5.3V7.7c0-2.9-2.4-5.3-5.3-5.3zm3.6 13.9c0 2-1.6 3.6-3.6 3.6H7.7c-2 0-3.6-1.6-3.6-3.6V7.7c0-2 1.6-3.6 3.6-3.6h8.6c2 0 3.6 1.6 3.6 3.6v8.6z"/><path d="M12 7.1c-2.7 0-4.9 2.2-4.9 4.9s2.2 4.9 4.9 4.9 4.9-2.2 4.9-4.9-2.2-4.9-4.9-4.9zm0 8.1c-1.8 0-3.2-1.5-3.2-3.2s1.5-3.2 3.2-3.2c1.8 0 3.2 1.5 3.2 3.2 0 1.8-1.4 3.2-3.2 3.2zM17.2 5.6c-.7 0-1.2.6-1.2 1.2 0 .7.6 1.2 1.2 1.2.7 0 1.2-.6 1.2-1.2 0-.3-.1-.6-.4-.9-.2-.2-.5-.3-.8-.3z"/></symbol><symbol id="instagram-white" fill="#fff" viewBox="0 0 24 24"><path d="M16.3 2.4H7.7c-2.9 0-5.3 2.4-5.3 5.3v8.6c0 2.9 2.4 5.3 5.3 5.3h8.6c2.9 0 5.3-2.4 5.3-5.3V7.7c0-2.9-2.4-5.3-5.3-5.3zm3.6 13.9c0 2-1.6 3.6-3.6 3.6H7.7c-2 0-3.6-1.6-3.6-3.6V7.7c0-2 1.6-3.6 3.6-3.6h8.6c2 0 3.6 1.6 3.6 3.6v8.6z"/><path d="M12 7.1c-2.7 0-4.9 2.2-4.9 4.9s2.2 4.9 4.9 4.9 4.9-2.2 4.9-4.9-2.2-4.9-4.9-4.9zm0 8.1c-1.8 0-3.2-1.5-3.2-3.2s1.5-3.2 3.2-3.2c1.8 0 3.2 1.5 3.2 3.2 0 1.8-1.4 3.2-3.2 3.2zM17.2 5.6c-.7 0-1.2.6-1.2 1.2 0 .7.6 1.2 1.2 1.2.7 0 1.2-.6 1.2-1.2 0-.3-.1-.6-.4-.9-.2-.2-.5-.3-.8-.3z"/></symbol><symbol id="linkedin-black" fill="#000" viewBox="0 0 24 24"><path d="M3 5.4c0-.6.2-1.1.6-1.4.4-.4.9-.6 1.6-.6.6 0 1.2.2 1.5.6.4.4.6.9.6 1.5s-.2 1-.6 1.4c-.4.3-.9.5-1.5.5-.7 0-1.2-.2-1.6-.6S3 6 3 5.4zm.2 15.2V9h3.9v11.6H3.2zm6 0h3.9v-6.5c0-.4 0-.7.1-.9.2-.4.4-.7.7-1 .3-.3.7-.4 1.2-.4 1.3 0 1.9.9 1.9 2.6v6.2h4v-6.7c0-1.7-.4-3-1.2-3.9-.8-.9-1.9-1.3-3.2-1.3-1.5 0-2.7.6-3.5 1.9V9H9.2v3.5c.1 1.9 0 4.6 0 8.1z"/></symbol><symbol id="linkedin-white" fill="#fff" viewBox="0 0 24 24"><path d="M3 5.4c0-.6.2-1.1.6-1.4.4-.4.9-.6 1.6-.6.6 0 1.2.2 1.5.6.4.4.6.9.6 1.5s-.2 1-.6 1.4c-.4.3-.9.5-1.5.5-.7 0-1.2-.2-1.6-.6S3 6 3 5.4zm.2 15.2V9h3.9v11.6H3.2zm6 0h3.9v-6.5c0-.4 0-.7.1-.9.2-.4.4-.7.7-1 .3-.3.7-.4 1.2-.4 1.3 0 1.9.9 1.9 2.6v6.2h4v-6.7c0-1.7-.4-3-1.2-3.9-.8-.9-1.9-1.3-3.2-1.3-1.5 0-2.7.6-3.5 1.9V9H9.2v3.5c.1 1.9 0 4.6 0 8.1z"/></symbol><symbol id="pinterest-black" fill="#000" viewBox="0 0 24 24"><path d="M16.5 4.2C15.1 3.4 13.6 3 12 3s-3.1.4-4.5 1.2C6.1 5 5 6.1 4.2 7.5 3.4 8.9 3 10.4 3 12c0 1.8.5 3.5 1.5 5s2.3 2.6 3.9 3.3c0-.8 0-1.5.2-2.1l1.2-4.9c-.2-.4-.3-.9-.3-1.4 0-.7.2-1.2.5-1.7.3-.4.7-.7 1.2-.7.4 0 .7.1.9.4.2.3.3.6.3 1 0 .2 0 .5-.1.9-.1.3-.2.7-.4 1.2-.1.5-.2.8-.3 1.1-.1.5 0 .9.3 1.2.3.3.7.5 1.1.5.8 0 1.5-.5 2.1-1.4.5-.9.8-2.1.8-3.4 0-1-.3-1.9-1-2.5-.7-.6-1.6-1-2.8-1-1.3 0-2.4.4-3.2 1.3-.8.8-1.2 1.9-1.2 3 0 .7.2 1.3.6 1.8.1.2.2.3.1.5 0 0 0 .2-.1.4 0 .2-.1.3-.1.4-.1.3-.2.3-.4.2-.6-.2-1.1-.7-1.4-1.3-.3-.6-.5-1.3-.5-2.1 0-.5.1-1 .3-1.6.1-.5.4-1.1.8-1.5.4-.5.8-.9 1.3-1.3.4-.4 1-.7 1.7-.9.8-.3 1.5-.4 2.3-.4 1.1 0 2.1.2 3 .7.9.5 1.6 1.1 2 1.9.5.8.7 1.6.7 2.5 0 1.2-.2 2.2-.6 3.2-.4.9-1 1.7-1.7 2.2-.7.5-1.6.8-2.5.8-.5 0-.9-.1-1.3-.3-.4-.2-.7-.5-.9-.8-.4 1.4-.6 2.2-.6 2.5-.1.6-.5 1.2-.9 1.9.8.2 1.7.4 2.6.4 1.6 0 3.1-.4 4.5-1.2 1.4-.8 2.5-1.9 3.3-3.3.8-1.4 1.2-2.9 1.2-4.5s-.4-3.1-1.2-4.5c-.9-1.4-2-2.5-3.4-3.3z"/></symbol><symbol id="pinterest-white" fill="#fff" viewBox="0 0 24 24"><path d="M16.5 4.2C15.1 3.4 13.6 3 12 3s-3.1.4-4.5 1.2C6.1 5 5 6.1 4.2 7.5 3.4 8.9 3 10.4 3 12c0 1.8.5 3.5 1.5 5s2.3 2.6 3.9 3.3c0-.8 0-1.5.2-2.1l1.2-4.9c-.2-.4-.3-.9-.3-1.4 0-.7.2-1.2.5-1.7.3-.4.7-.7 1.2-.7.4 0 .7.1.9.4.2.3.3.6.3 1 0 .2 0 .5-.1.9-.1.3-.2.7-.4 1.2-.1.5-.2.8-.3 1.1-.1.5 0 .9.3 1.2.3.3.7.5 1.1.5.8 0 1.5-.5 2.1-1.4.5-.9.8-2.1.8-3.4 0-1-.3-1.9-1-2.5-.7-.6-1.6-1-2.8-1-1.3 0-2.4.4-3.2 1.3-.8.8-1.2 1.9-1.2 3 0 .7.2 1.3.6 1.8.1.2.2.3.1.5 0 0 0 .2-.1.4 0 .2-.1.3-.1.4-.1.3-.2.3-.4.2-.6-.2-1.1-.7-1.4-1.3-.3-.6-.5-1.3-.5-2.1 0-.5.1-1 .3-1.6.1-.5.4-1.1.8-1.5.4-.5.8-.9 1.3-1.3.4-.4 1-.7 1.7-.9.8-.3 1.5-.4 2.3-.4 1.1 0 2.1.2 3 .7.9.5 1.6 1.1 2 1.9.5.8.7 1.6.7 2.5 0 1.2-.2 2.2-.6 3.2-.4.9-1 1.7-1.7 2.2-.7.5-1.6.8-2.5.8-.5 0-.9-.1-1.3-.3-.4-.2-.7-.5-.9-.8-.4 1.4-.6 2.2-.6 2.5-.1.6-.5 1.2-.9 1.9.8.2 1.7.4 2.6.4 1.6 0 3.1-.4 4.5-1.2 1.4-.8 2.5-1.9 3.3-3.3.8-1.4 1.2-2.9 1.2-4.5s-.4-3.1-1.2-4.5c-.9-1.4-2-2.5-3.4-3.3z"/></symbol><symbol id="tiktok-black" fill="#000" viewBox="0 0 24 24"><path d="M15.5 3c.3 2.6 1.7 4.1 4.2 4.2v2.9c-1.4.1-2.7-.3-4.2-1.2v5.4c0 6.8-7.5 9-10.5 4.1-1.9-3.1-.7-8.7 5.4-8.9v3c-.5.1-1 .2-1.4.4-1.4.5-2.2 1.3-1.9 2.9.4 2.9 5.8 3.8 5.4-1.9V3h3z"/></symbol><symbol id="tiktok-white" fill="#fff" viewBox="0 0 24 24"><path d="M15.5 3c.3 2.6 1.7 4.1 4.2 4.2v2.9c-1.4.1-2.7-.3-4.2-1.2v5.4c0 6.8-7.5 9-10.5 4.1-1.9-3.1-.7-8.7 5.4-8.9v3c-.5.1-1 .2-1.4.4-1.4.5-2.2 1.3-1.9 2.9.4 2.9 5.8 3.8 5.4-1.9V3h3z"/></symbol><symbol id="twitter-black" fill="#000" viewBox="0 0 24 24"><path d="M23 5.2c-.8.4-1.7.6-2.6.7.9-.6 1.6-1.4 2-2.5-.9.5-1.8.9-2.9 1.1-.8-.9-2-1.4-3.3-1.4-2.5 0-4.5 2-4.5 4.5 0 .4 0 .7.1 1-3.8-.2-7.1-2-9.3-4.7-.4.7-.6 1.4-.6 2.3 0 1.6.8 2.9 2 3.8-.7 0-1.4-.2-2-.6v.1c0 2.2 1.6 4 3.6 4.4-.4 0-.8.1-1.2.1-.3 0-.6 0-.8-.1C4 15.7 5.7 17 7.7 17c-1.6 1.3-3.5 2-5.6 2-.4 0-.7 0-1.1-.1 2 1.3 4.4 2 6.9 2 8.3 0 12.8-6.9 12.8-12.8v-.6c.9-.6 1.7-1.4 2.3-2.3"/></symbol><symbol id="twitter-white" fill="#fff" viewBox="0 0 24 24"><path d="M23 5.2c-.8.4-1.7.6-2.6.7.9-.6 1.6-1.4 2-2.5-.9.5-1.8.9-2.9 1.1-.8-.9-2-1.4-3.3-1.4-2.5 0-4.5 2-4.5 4.5 0 .4 0 .7.1 1-3.8-.2-7.1-2-9.3-4.7-.4.7-.6 1.4-.6 2.3 0 1.6.8 2.9 2 3.8-.7 0-1.4-.2-2-.6v.1c0 2.2 1.6 4 3.6 4.4-.4 0-.8.1-1.2.1-.3 0-.6 0-.8-.1C4 15.7 5.7 17 7.7 17c-1.6 1.3-3.5 2-5.6 2-.4 0-.7 0-1.1-.1 2 1.3 4.4 2 6.9 2 8.3 0 12.8-6.9 12.8-12.8v-.6c.9-.6 1.7-1.4 2.3-2.3"/></symbol><symbol id="telegram-black" fill="#000" viewBox="0 0 24 24"><path d="M19.7 4.9c-.3-.2-.7-.3-1.1-.1-.5.2-13.2 5.7-13.8 5.9-.1 0-.9.3-.8 1 .1.6.7.9.8.9L8 13.7c.2.7 1 3.3 1.2 3.9.1.3.3.8.6.9.3.1.5 0 .7-.1l2-1.8 3.2 2.5h.1c.2.1.4.1.6.1.2 0 .3 0 .4-.1.5-.2.7-.6.7-.7L20 6.1c.1-.7-.1-1-.3-1.2zm-8.8 9.3-1.1 2.9-1.1-3.6 8.4-6.2-6.2 6.9z"/></symbol><symbol id="telegram-white" fill="#fff" viewBox="0 0 24 24"><path d="M19.7 4.9c-.3-.2-.7-.3-1.1-.1-.5.2-13.2 5.7-13.8 5.9-.1 0-.9.3-.8 1 .1.6.7.9.8.9L8 13.7c.2.7 1 3.3 1.2 3.9.1.3.3.8.6.9.3.1.5 0 .7-.1l2-1.8 3.2 2.5h.1c.2.1.4.1.6.1.2 0 .3 0 .4-.1.5-.2.7-.6.7-.7L20 6.1c.1-.7-.1-1-.3-1.2zm-8.8 9.3-1.1 2.9-1.1-3.6 8.4-6.2-6.2 6.9z"/></symbol><symbol id="youtube-black" fill="#000" viewBox="0 0 24 24"><path d="M21.6 7.2c-.2-.9-.9-1.5-1.8-1.8C18.3 5 12 5 12 5s-6.3 0-7.8.4c-.9.2-1.6.9-1.8 1.8C2 8.7 2 12 2 12s0 3.3.4 4.8c.2.9.9 1.5 1.8 1.8 1.5.4 7.8.4 7.8.4s6.3 0 7.8-.4c.9-.2 1.5-.9 1.8-1.8.4-1.5.4-4.8.4-4.8s0-3.3-.4-4.8zM10 15V9l5.2 3-5.2 3z"/></symbol><symbol id="youtube-white" fill="#fff" viewBox="0 0 24 24"><path d="M21.6 7.2c-.2-.9-.9-1.5-1.8-1.8C18.3 5 12 5 12 5s-6.3 0-7.8.4c-.9.2-1.6.9-1.8 1.8C2 8.7 2 12 2 12s0 3.3.4 4.8c.2.9.9 1.5 1.8 1.8 1.5.4 7.8.4 7.8.4s6.3 0 7.8-.4c.9-.2 1.5-.9 1.8-1.8.4-1.5.4-4.8.4-4.8s0-3.3-.4-4.8zM10 15V9l5.2 3-5.2 3z"/></symbol><symbol id="whatsapp-black" fill="#000" viewBox="0 0 24 24"><path d="M19.05 4.91A9.816 9.816 0 0 0 12.04 2c-5.46 0-9.91 4.45-9.91 9.91 0 1.75.46 3.45 1.32 4.95L2.05 22l5.25-1.38c1.45.79 3.08 1.21 4.74 1.21 5.46 0 9.91-4.45 9.91-9.91 0-2.65-1.03-5.14-2.9-7.01zm-7.01 15.24c-1.48 0-2.93-.4-4.2-1.15l-.3-.18-3.12.82.83-3.04-.2-.31a8.264 8.264 0 0 1-1.26-4.38c0-4.54 3.7-8.24 8.24-8.24 2.2 0 4.27.86 5.82 2.42a8.183 8.183 0 0 1 2.41 5.83c.02 4.54-3.68 8.23-8.22 8.23zm4.52-6.16c-.25-.12-1.47-.72-1.69-.81-.23-.08-.39-.12-.56.12-.17.25-.64.81-.78.97-.14.17-.29.19-.54.06-.25-.12-1.05-.39-1.99-1.23-.74-.66-1.23-1.47-1.38-1.72-.14-.25-.02-.38.11-.51.11-.11.25-.29.37-.43s.17-.25.25-.41c.08-.17.04-.31-.02-.43s-.56-1.34-.76-1.84c-.2-.48-.41-.42-.56-.43h-.48c-.17 0-.43.06-.66.31-.22.25-.86.85-.86 2.07 0 1.22.89 2.4 1.01 2.56.12.17 1.75 2.67 4.23 3.74.59.26 1.05.41 1.41.52.59.19 1.13.16 1.56.1.48-.07 1.47-.6 1.67-1.18.21-.58.21-1.07.14-1.18s-.22-.16-.47-.28z"/></symbol><symbol id="whatsapp-white" fill="#fff" viewBox="0 0 24 24"><path d="M19.05 4.91A9.816 9.816 0 0 0 12.04 2c-5.46 0-9.91 4.45-9.91 9.91 0 1.75.46 3.45 1.32 4.95L2.05 22l5.25-1.38c1.45.79 3.08 1.21 4.74 1.21 5.46 0 9.91-4.45 9.91-9.91 0-2.65-1.03-5.14-2.9-7.01zm-7.01 15.24c-1.48 0-2.93-.4-4.2-1.15l-.3-.18-3.12.82.83-3.04-.2-.31a8.264 8.264 0 0 1-1.26-4.38c0-4.54 3.7-8.24 8.24-8.24 2.2 0 4.27.86 5.82 2.42a8.183 8.183 0 0 1 2.41 5.83c.02 4.54-3.68 8.23-8.22 8.23zm4.52-6.16c-.25-.12-1.47-.72-1.69-.81-.23-.08-.39-.12-.56.12-.17.25-.64.81-.78.97-.14.17-.29.19-.54.06-.25-.12-1.05-.39-1.99-1.23-.74-.66-1.23-1.47-1.38-1.72-.14-.25-.02-.38.11-.51.11-.11.25-.29.37-.43s.17-.25.25-.41c.08-.17.04-.31-.02-.43s-.56-1.34-.76-1.84c-.2-.48-.41-.42-.56-.43h-.48c-.17 0-.43.06-.66.31-.22.25-.86.85-.86 2.07 0 1.22.89 2.4 1.01 2.56.12.17 1.75 2.67 4.23 3.74.59.26 1.05.41 1.41.52.59.19 1.13.16 1.56.1.48-.07 1.47-.6 1.67-1.18.21-.58.21-1.07.14-1.18s-.22-.16-.47-.28z"/></symbol></defs></svg>