<svg xmlns="http://www.w3.org/2000/svg" xml:space="preserve" style="enable-background:new 0 0 60 32" viewBox="0 0 60 32"><g transform="translate(0 .001)"><path d="M10.4 26.1c-.5-.4-.7-1-.8-1.6-.4.4-.9.6-1.4.7l.5-1.1H7.6l.1-.2h-.5c0 .1-.1.2-.1.2l-.1.2h.4v.2H7l-.2.5h.4l.1-.2h.4l-.3.5c-.2 0-.4 0-.6-.1-.6.1-1.1.2-1.6.4-.7.3-1.3.7-1.9 1.2-.3.3-.5.5-.5.6.2.1.4.1.6.1 0 .1.1.3.1.5.1-.2.1-.4.2-.6l.2.5.2-.7.2.4.2-.5.2.4.3-.5.2.5.2-.5.2.4.2-.4.2.3.2-.3H6.5c.1.1 0 .2-.2.4l-.1-.1c-.1 0-.2.1-.2.2 0-.1-.1-.2-.1-.2l-.2.4-.2-.4-.2.5-.2-.4-.2.6s-.1-.1-.2-.4l-.2.7c0-.1-.1-.2-.1-.3l-.1-.2c-.2.7-.3 1.1-.3 1.1s.1 0 .5-.2c1.1-.5 1.7-.8 1.7-.8s.3-.2.9-.7l.7-.2.4.4-.4.2-.1-.2-.4.1.3.4.4-.2.1.2-.4.1.1.2c.1 0 .2.1.2.2l.5-.2-.2-.2 1-.3-.8-1 1.9-.6zm-5.4.6h-.8l1.6-.7-.8.7zM12.7 21.9c-1.2 0-2.1 1-2.1 2.1 0 1.2 1 2.1 2.1 2.1s2.1-.9 2.1-2.1c0-1.1-1-2.1-2.1-2.1zm0 3.2c-.6 0-1-.5-1-1s.5-1 1-1c.6 0 1 .5 1 1s-.4 1-1 1z"/><path d="M12.7 21.1c-1.6 0-2.9 1.3-2.9 3 0 1.6 1.3 2.9 3 2.9 1.6 0 2.9-1.3 2.9-2.9 0-1.7-1.4-3-3-3zm0 5.6c-1.5 0-2.6-1.2-2.6-2.7 0-1.5 1.2-2.6 2.7-2.6 1.4 0 2.6 1.2 2.6 2.6 0 1.5-1.2 2.7-2.7 2.7zM23.6 27.6c.4.7.7 1.4.8 2.2.2 1.4 1.2 1.6 1.6 1.3s1.1-1-2.4-3.5zM22 30.2s-.4-1.9-.5-.9.2 2.1.4 2.1c.3-.2.1-1.2.1-1.2zM12.5 27s-.3 1.7-.9 1.4.4-1.4.4-1.4h.5zM9.9 29.4c-1 .3-1.9.7-2.8 1.2-.4.4-.3.8 0 .9.4.3.9.2 1.2-.2.5-.7.6-1.3 1.6-1.9zM13.2 29.6s-.1 2.1-.5 2 .5-2 .5-2zM15.3 27.3s-.1 1.7-.5 1.5.4-1.1.5-1.5zM10.4 11.5S5.5 9 7.6 6.9c1.9-1.3 1.5 3.6 2.8 4.6zM14.1 3.4c-1.3 0-2.3 1.1-2.3 2.4 0 1.3 1.1 2.3 2.4 2.3 1.3 0 2.3-1.1 2.3-2.3 0-1.3-1.1-2.4-2.4-2.4zm0 4.4c-1.1 0-2-.9-2-2s.9-2 2-2 2 .9 2 2-.9 2-2 2z"/><path d="m13.9 5.8-.7.7-.2-.1.6-.7.3.1zM15.1 4.9c.2.4.3 1 0 1.4-.2.4-.6.7-1.1.8.3-.3.6-.6.8-1 .2-.4.3-.8.3-1.2zM14.3 5c-.1.1-.2.2-.3.1-.1-.1-.2-.2-.1-.3.1-.1.2-.2.3-.1.1 0 .2.1.1.3zM16.1 27.4s-.4 4.5-1.4 4.2c-.5-.2.3-1.5.3-1.5.5-.8.8-1.7 1.1-2.7zM10.5 19s.2 2.3-.6 2.1c-.8-.2.6-1 .6-2.1zM11 13s-.5-1.2-1.4-1.4S11 13 11 13zM17.8 4.6s-.4-4.2.7-4.6.6 1.4 0 2.1c-.4.8-.6 1.7-.7 2.5zM23.8 4.8s1.7-4.4 2.8-3.1c1.1 1.7-1.8 1.6-2.8 3.1M21.5 3.8s.1-2.5 1.1-1.9c0 0 .5.2-.2.7-.4.4-.7.8-.9 1.2z"/><circle cx="10.5" cy="2.7" r="1.1"/><path d="m11.4.3-.2-.1-.3 1.2.2.1.3-1.2zM13 1.5l-.1-.2c-.4.2-.8.4-1.1.6l.1.2 1.1-.6zM9.3.3l-.2.1c.2.4.4.7.6 1.1l.3-.1L9.3.3zM9.1 2.4l.1-.2-1.3-.3v.2l1.2.3zM9.2 3.3v-.2l-1.3.3v.2c.5 0 .9-.2 1.3-.3zM9.2 5l.2.1.7-1.1-.3-.1L9.2 5zM25.8 25.9l3.1 3.9s1.5 1.8 2.7.6c1.3-1.2.5-2.3-.5-3.4l.5-.4-1.6-.8.3 1.9.5-.4s1.9 1.6.6 2.8c-1.3 1.2-2.8-1.3-3.6-2.2s-1.7-2-1.7-2h-.3zM18.1 24.4s.2 3.6-.4 3.5c-.3-.2.4-2.2.4-3.5zM24.288 23.864v.2s0 .1.1.1c0 0 .1 0 .1.1h.4s.1 0 .1-.1l.1-.1v-.2s-.1 0-.1-.1h-.3c-.1 0-.2 0-.3-.1-.1 0-.1 0-.2-.1l-.1-.1s0-.1-.1-.1V23.064c0-.1.1-.1.1-.1.1 0 .1-.1.2-.1h.4c.3 0 .3 0 .4.1.1 0 .1.1.1.2s.1.1 0 .2h-.2c0-.1 0-.2-.1-.2s-.2-.1-.2-.1h-.2s-.1 0-.1.1v.1s0 .1.1.1l.1.1h.4c.1 0 .1 0 .1.1l.1.1s0 .1.1.1v.1c0 .1 0 .2-.1.2 0 .1-.1.1-.1.2s-.1.2-.2.2h-.5c-.1 0-.2-.1-.2-.1-.1-.1-.2-.3-.2-.4l.3-.1zM25.488 22.864h.3v.2h-.3v-.2zm0 .4h.3v1.2h-.3v-1.2zM25.888 23.264h.2v-.3h.3v.4h.2v.2h-.3v.7H26.588v.2h-.4s-.1 0-.1-.1V23.464h-.2v-.2zM26.888 23.964v.1s0 .1.1.1l.1.1H27.388c.1 0 .1-.1.1-.1h.2c0 .1 0 .1-.1.2 0 0-.1 0-.2.1h-.4c-.1 0-.1-.1-.2-.1 0-.1-.1-.1-.1-.2v-.5c0-.1.1-.1.1-.2s.1-.1.2-.1.2-.1.2 0c.1 0 .2 0 .3.1.1 0 .1.1.2.1 0 .1.1.1.1.2v.3l-.9-.1zm.6-.2v-.1s0-.1-.1-.1c0 0-.1 0-.1-.1h-.2s-.1 0-.1.1l-.1.1v.1h.6z"/><path d="M28.088 24.064c0 .1 0 .1.1.2h.5v-.2h-.4s-.1 0-.1-.1l-.3-.2V23.464l.1-.1s.1 0 .2-.1h.4c.1 0 .1 0 .1.1l.1.1c0 .1 0 .1.1.2h-.3c0-.1 0-.1-.1-.1h-.4v.2h.4s.1 0 .1.1l.1.1V24.264l-.1.1c-.1 0-.1.1-.2.1h-.4c-.1 0-.1 0-.2-.1l-.1-.1v-.2h.4zM30.288 24.264c0 .1-.1.1-.2.2-.1 0-.2.1-.3 0h-.2c-.1 0-.1-.1-.2-.1l-.1-.1v-.4s0-.1.1-.1l.1-.1.1-.1s0-.1-.1-.1l.1-.1v-.4s0-.1.1-.1l.1-.1h.3s.1 0 .1.1l.1.1V23.264s0 .1-.1.1l-.1.1s-.1 0-.1.1l.3.3v-.2h.2v.2c0 .1 0 .1-.1.2l.3.4h-.2l-.2-.2zm-.4-.6c0 .1-.1.1 0 0l-.2.1-.1.1v.1c0 .1 0 .1.1.2.1 0 .1.1.2.1h.2l.1-.1v-.1l-.3-.4zm.1-.7h-.1s-.1.1 0 .1v.4h.1l.1-.1c.1-.1 0 0 0-.1v-.2c0-.1-.1-.1-.1-.1zM31.488 23.864v.2s0 .1.1.1c0 0 .1 0 .1.1h.4s.1 0 .1-.1l.1-.1v-.2s-.1 0-.1-.1h-.3c-.1 0-.2 0-.3-.1-.1 0-.1 0-.2-.1l-.1-.1s0-.1-.1-.1V23.064c0-.1.1-.1.1-.1.1 0 .1-.1.2-.1h.4c.1 0 .1.1.2.1s.1.1.1.2.1.1 0 .2c0-.1 0-.2-.1-.2-.1-.1-.2-.1-.3-.1h-.2s-.1 0-.1.1v.1s0 .1.1.1l.1.1h.4c.1 0 .1 0 .1.1l.1.1s0 .1.1.1v.1c0 .1 0 .2-.1.2 0 .1-.1.1-.1.2-.1 0-.1.1-.2.1h-.5c-.1 0-.2-.1-.2-.1-.1 0-.1-.1-.1-.2s-.1-.2-.1-.3l.4.1zM33.188 24.464h-.3c-.1 0-.1-.1-.2-.1.1-.1 0-.2 0-.3v-.5c0-.1.1-.1.1-.2.1 0 .1-.1.2-.1.2-.1.3-.1.5 0 .1 0 .1.1.2.1.1.1.1.1.1.2v.5c0 .1-.1.1-.1.2-.1.1-.3.2-.5.2zm0-.2h.1l.1-.1s0-.1.1-.1v-.3s0-.1-.1-.1l-.1-.1h-.3l-.1.1s0 .1-.1.1v.3s0 .1.1.1l.1.1h.2zM33.888 23.264h.2V22.964s0-.1.1-.1h.4v.2H34.288v.2h.2v.2h-.2v1h-.3v-1h-.1v-.2zM34.588 23.264h.2v-.3h.3v.4h.2v.2h-.2v.7H35.388v.2h-.4s-.1 0-.1-.1V23.464h-.2l-.1-.2zM35.388 23.264h.3l.2.9.2-.9h.3l.2.9.2-.9h.3l-.4 1.2h-.3l-.2-.9-.2.9h-.3l-.3-1.2zM38.088 24.164s0 .1 0 0c.1.1.1.1 0 0l.1.1v.2h-.1l-.1-.1c-.1 0-.1.1-.2.1H37.488s-.1 0-.1-.1l-.1-.1V23.964l.1-.1s.1 0 .1-.1h.5v-.2h-.5l-.1.1h-.3c0-.1 0-.1.1-.2l.1-.1c.1 0 .1-.1.2-.1h.4c.1 0 .1 0 .1.1l.1.1v.7zm-.2-.3h-.5V24.164h.5s.1 0 .1-.1v-.1l-.1-.1zM38.388 23.264h.2v.2-.1s0-.1.1-.1c0 0 .1 0 .1-.1h.2v.3H38.688s-.1 0-.1.1c0 0 0 .1-.1.1v.8h-.3l.2-1.2zM39.288 23.964v.1s0 .1.1.1l.1.1H39.788c.1 0 .1-.1.1-.1h.2c0 .1 0 .1-.1.2s-.2.2-.3.2h-.4c-.1 0-.1-.1-.2-.1 0-.1-.1-.1-.1-.2v-.5c0-.1.1-.1.1-.2s.1-.1.2-.1h.2c.1 0 .2 0 .3.1.1 0 .1.1.2.1 0 .1.1.1.1.2v.3l-.8-.2zm.6-.2v-.1s0-.1-.1-.1c0 0-.1 0-.1-.1h-.2s-.1 0-.1.1l-.1.1v.1h.6zM40.588 24.064c0 .1 0 .1.1.2h.5v-.2h-.4s-.1 0-.1-.1l-.1-.1V23.564l.1-.1s.1 0 .2-.1h.4c.1 0 .1 0 .1.1l.1.1c0 .1 0 .1.1.2h-.6c0-.1 0-.1-.1-.1h-.4v.2h.2l.3-.1h.1s.1 0 .1.1l.1.1V24.264l-.1.1c-.1 0-.1.1-.2.1h-.4c-.1 0-.1 0-.2-.1l-.1-.1v-.2h.3zM11.7 3.5l-.5.5-.2-.2.4-.4.3.1zM11.9 3.7l-.4.5-.2-.2.5-.4.1.1z"/><path d="m12.1 3.8-.4.5-.2-.2.4-.4.2.1zM12.3 4l-.4.5-.2-.2.4-.4.2.1zM2.1 9.7c.7 0 1.2.5 1.3 1.2v.2c-.1.8-.7 1.3-1.5 1.4-.7 0-1.2-.6-1.2-1.3v-.1c0-.8.7-1.4 1.4-1.4zM.7 13.4H3l-.7 7.9H0l.7-7.9zM4.6 19c.1.6.6 1 1.4 1 .8 0 1.2-.3 1.3-.8.1-.7-.6-.8-1.6-1.2-1.6-.6-2.4-1.2-2.3-2.4C3.5 14.1 4.9 13 7 13c1.2-.1 2.4.5 2.9 1.6l-1.9 1c-.1-.6-.7-1-1.3-.9-.7 0-1.2.3-1.2.8-.1.7.6.8 1.8 1.2 1.6.5 2.3 1.2 2.2 2.5-.1 1.5-1.5 2.6-3.6 2.6-1.7 0-2.9-.7-3.1-1.7L4.6 19zM16.116 26.205v.2-.2zM21.216 15.405c.2-2.7-1-3.8-3.5-3.8h-1.5l-.6 7.6h1.4c2.6 0 4-1.1 4.2-3.8z"/><path d="M27.816 5.405c.5.4.9.8 1.3 1.3-.6.6-1 1.5-1.1 2.4 0 0-.5 3.3-2.4 2.2-.1 0-.2-.2-.2-.3.1-.2.1-.4-.2-.5-.3-.3.3-1 .3-1 .9-1.2-1.3-2.8-1.6-3.3-.2-.3-.3-.7-.2-1.1l-1.7 2c-.3.5-.8 1-1.2 1.4-.1.1-.2.1-.3 0-.3-.3.5-2.6-.3-2.7-.4-.1-.6.5-.6.5s.4-2.4-.1-2.4-.7 3.9-1.4 3.7.4-2.4-.4-2.6-.7 1.7-1.3 2.4c-.7.7-1.5 1.2-2.5 1.3-.4 0-.8 0-1.2-.2-.8-.2-1.3-.3-1.5.1 0 0-.3.5 1.1 1.4 0 0 1.4.7.3 1.3 0 0-1 .5-.6 1.3s.3.9 0 1.2c-.4.3-1.2.4-1.3 1s.8 1 .8 1c.8.2.3.9.3.9-.3.1-.7.2-1 .2-.6 0-1.3 0-.9.5s1.2.7 1.2 1.2-.3 1.3 0 1.7.5 1 1.1 1h.7l1-11.8h3.3c2.1 0 3.6.2 4.9 1.2 1.4 1.2 2.1 3 1.8 4.8-.1 1.9-1.1 3.7-2.6 4.8-1.4.9-3.1 1.3-4.8 1.1h-3c1.2.3 2.1 1.4 2.1 2.7 0 0 .9.3.5 2.2.8-4 2.1-3.5 2.1-3.5s1 .1 1.3 1.7c.3 1.4.2 2.9-.4 4.3-.6 2-.5 3.3.3 3.3s1.3-1.5 1.1-3.5-.7-5.7-.7-5.7-.2-.6.1-.7c0 0 .5-.3.5.4 0 1 .4.8.4.5 0 0 .1.7.7.7s.1-1.5.1-1.5c0-.2.1-.4.3-.4.3-.1.4-.1.6.1.3.2.7.2.9 0 .3-.3-.4-1.8.1-2.3.1-.2.3-.3.5-.2h.1c.1.1.2.1.3 0-.2-.5-.3-1.1-.3-1.7v-.5c0-.5.2-1 .3-1.5-.1-1.8 2.1-1.5 1.2-2.9-.2-.2-.3-.4-.4-.5 0 0-.4-.6 0-.6 0 0 1.5.6 2.1-.3.5-.6.8-1.4.9-2.2.1-.9.5-1.6 1.2-2.2.3.5.5 1 .7 1.6l2-3.6-4.3.3zm-3.1 3.7h-1v1h-.6v-1h-1v-.6h1v-1h.6v1h1v.6z"/><path d="M26.7 17.9c0 .9.6 1.7 1.5 1.7h.3c.8 0 1.5-.3 2-1l1.8.9c-.9 1.3-2.4 2.1-4 2.1-2.6 0-4.1-1.7-3.9-4.2.1-2.4 2.1-4.3 4.6-4.3 2.5 0 4 1.6 3.8 4.2 0 .2 0 .4-.1.6h-6zm2.2-2.9c-1-.1-1.8.6-2 1.5h3.6c0-.8-.6-1.5-1.4-1.5h-.2zM34.4 19c.1.6.6 1 1.4 1 .8 0 1.2-.3 1.3-.8.1-.7-.6-.8-1.6-1.2-1.6-.6-2.4-1.2-2.3-2.4.1-1.5 1.5-2.6 3.6-2.6 1.2-.1 2.4.5 2.9 1.6l-1.8.8c-.1-.6-.7-1-1.3-.9-.7 0-1.2.3-1.2.8-.1.7.6.8 1.8 1.2 1.6.5 2.3 1.2 2.2 2.5-.1 1.5-1.5 2.6-3.6 2.6-1.7 0-2.9-.7-3.1-1.7l1.7-.9zM41.7 9.7c.7 0 1.2.5 1.3 1.2v.2c-.1.8-.7 1.3-1.5 1.4-.7 0-1.2-.6-1.2-1.3v-.1c0-.8.7-1.4 1.4-1.4zm-1.4 3.7h2.3l-.7 7.9h-2.3l.7-7.9zM50 23.9c-.9.8-2.2 1.2-3.4 1.1-2.6 0-3.9-.8-3.8-2.5h2.5c0 .6.5.9 1.4.9 1.4 0 1.8-.7 2-2.1l.1-1.1c-.6.9-1.7 1.5-2.8 1.4-2.2 0-3.5-1.6-3.3-4.2.2-2.6 1.7-4.2 4-4.2 1.1 0 2.1.6 2.6 1.6l.1-1.3h2.2l-.7 7.8c0 .9-.3 1.8-.9 2.6zm-2.7-8.8c-1.2 0-2.2.9-2.2 2.1v.1c-.1 1.4.5 2.2 1.8 2.2 1.2 0 2.2-.9 2.2-2.1v-.1c.1-1.4-.6-2.2-1.8-2.2zM52.1 13.4h2.3l-.1 1.2c.7-.9 1.9-1.5 3.1-1.5 1-.1 2 .4 2.4 1.3.2.7.3 1.4.2 2.1v.3l-.4 4.6h-2.3l.3-3.9c.1-1.5.1-2.4-1.3-2.4-.6 0-1.2.3-1.6.8-.4.5-.6 1.1-.5 1.8v.3l-.3 3.5h-2.3l.5-8.1z"/></g></svg>