<svg xmlns="http://www.w3.org/2000/svg" width="60" height="32" viewBox="0 0 60 32"><g transform="translate(0 0.001)"><path d="M37.5,258.006a2.226,2.226,0,0,1-.778-1.59,2.925,2.925,0,0,1-1.369.725l.525-1.135-1.087-.047.122-.223-.478-.037a.939.939,0,0,1-.094.232l-.1.2.366.047-.037.177-.4-.028-.225.465.4.028.075-.2.441.046-.328.549a4.734,4.734,0,0,1-.609-.074,6.833,6.833,0,0,0-1.64.409,5.479,5.479,0,0,0-1.856,1.172c-.347.335-.525.539-.525.642a.887.887,0,0,0,.591.093,4.292,4.292,0,0,1,.122.456,4.274,4.274,0,0,0,.2-.558l.225.484.2-.707.2.428.225-.53.216.418.244-.567.225.484.225-.493.187.391.2-.391.159.344.15-.3a.5.5,0,0,1,.112.009.617.617,0,0,1,.169.047c.131.065.047.186-.225.353l-.075-.149a1.975,1.975,0,0,0-.15.288,1.728,1.728,0,0,0-.131-.242l-.169.428-.2-.353-.216.539-.206-.409-.225.539s-.066-.149-.216-.418l-.2.688a1.326,1.326,0,0,0-.1-.3l-.1-.232c-.178.707-.281,1.079-.281,1.088,0,.028.15-.046.45-.214,1.087-.511,1.65-.772,1.669-.781s.328-.233.947-.66l.8-.251.356.353-.412.167-.122-.177-.384.13.337.391.375-.139.094.158-.337.139.131.177a2.219,2.219,0,0,1,.159.2l.45-.158-.159-.177,1.031-.344-.8-.976,1.837-.577v-.009c.009-.009.037-.009.056-.009C37.521,258.016,37.512,258.016,37.5,258.006Zm-5.39.6-.759-.037,1.594-.7Z" transform="translate(-27.097 -231.922)" fill="#fff"/><path d="M114.909,235.8a2.083,2.083,0,1,0,2.109,2.083A2.1,2.1,0,0,0,114.909,235.8Zm0,3.125a1.042,1.042,0,1,1,1.05-1.042A1.044,1.044,0,0,1,114.909,238.925Z" transform="translate(-102.226 -213.873)" fill="#fff"/><path d="M107.053,226.8a2.92,2.92,0,1,0,2.953,2.92A2.939,2.939,0,0,0,107.053,226.8Zm0,5.561a2.641,2.641,0,1,1,2.672-2.641A2.658,2.658,0,0,1,107.053,232.361Z" transform="translate(-94.342 -205.71)" fill="#fff"/><path d="M252.1,297a5.088,5.088,0,0,1,.769,2.2c.178,1.376,1.153,1.562,1.584,1.274S255.578,299.446,252.1,297Z" transform="translate(-228.469 -269.381)" fill="#fff"/><path d="M229.743,312.586s-.45-1.888-.487-.93.159,2.111.384,2.064C229.93,313.674,229.743,312.586,229.743,312.586Z" transform="translate(-207.761 -282.428)" fill="#fff"/><path d="M122.616,290.065s-.281,1.7-.891,1.4.412-1.469.412-1.469Z" transform="translate(-110.14 -263.032)" fill="#fff"/><path d="M76.755,315.9A13.072,13.072,0,0,0,74,317.081c-.4.418-.253.818.009.93a.839.839,0,0,0,1.2-.186C75.686,317.128,75.714,316.5,76.755,315.9Z" transform="translate(-66.837 -286.524)" fill="#fff"/><path d="M135.3,318.8s-.15,2.092-.487,2.027S135.3,318.8,135.3,318.8Z" transform="translate(-122.105 -289.154)" fill="#fff"/><path d="M157.52,293.9s-.1,1.73-.478,1.488S157.473,294.281,157.52,293.9Z" transform="translate(-142.231 -266.57)" fill="#fff"/><path d="M79.313,76.975s-4.884-2.511-2.8-4.622C78.366,71.052,77.925,75.906,79.313,76.975Z" transform="translate(-68.87 -65.426)" fill="#fff"/><path d="M127.853,36.9a2.325,2.325,0,1,0,2.353,2.325A2.343,2.343,0,0,0,127.853,36.9Zm0,4.324a1.99,1.99,0,1,1,2.015-1.99A2,2,0,0,1,127.853,41.224Z" transform="translate(-113.736 -33.469)" fill="#fff"/><path d="M138.856,60.877l-.712.67-.244-.13.619-.716Z" transform="translate(-124.974 -55.056)" fill="#fff"/><path d="M150.506,52.2a1.581,1.581,0,0,1,.038,1.423,1.8,1.8,0,0,1-1.144.818h0a3.179,3.179,0,0,0,.759-1.023,2.981,2.981,0,0,0,.347-1.218Z" transform="translate(-135.396 -47.347)" fill="#fff"/><path d="M148.1,49.889a.264.264,0,0,1-.337.149.26.26,0,0,1-.15-.335.272.272,0,0,1,.337-.149A.265.265,0,0,1,148.1,49.889Z" transform="translate(-133.763 -44.933)" fill="#fff"/><path d="M156.882,295s-.431,4.473-1.359,4.176c-.478-.158.319-1.507.319-1.507A11.692,11.692,0,0,0,156.882,295Z" transform="translate(-140.806 -267.567)" fill="#fff"/><path d="M104.067,204s.187,2.3-.609,2.12C102.679,205.944,104.02,205.153,104.067,204Z" transform="translate(-93.54 -185.03)" fill="#fff"/><path d="M102.2,125.389s-.534-1.181-1.4-1.423S102.2,125.389,102.2,125.389Z" transform="translate(-91.176 -112.417)" fill="#fff"/><path d="M189.372,4.612S188.95.445,190.1.055s.647,1.367,0,2.13A5.056,5.056,0,0,0,189.372,4.612Z" transform="translate(-171.552 0)" fill="#fff"/><path d="M254,19.34s1.7-4.408,2.775-3.125c1.134,1.637-1.809,1.562-2.775,3.125" transform="translate(-230.191 -14.496)" fill="#fff"/><path d="M229,21.888s.15-2.455,1.125-1.869c0,0,.459.232-.178.7A3.231,3.231,0,0,0,229,21.888Z" transform="translate(-207.534 -18.076)" fill="#fff"/><ellipse cx="1.078" cy="1.06" rx="1.078" ry="1.06" transform="translate(9.383 1.664)" fill="#fff"/><path d="M116.372,2.474l-.234-.074c-.122.409-.225.837-.337,1.246l.244.074Z" transform="translate(-104.945 -2.178)" fill="#fff"/><path d="M126.156,14.4l-.122-.2c-.375.2-.75.418-1.134.642l.131.223Z" transform="translate(-113.192 -12.88)" fill="#fff"/><path d="M97.516,3.5l-.216.121c.216.372.441.744.647,1.116l.225-.139Z" transform="translate(-88.179 -3.175)" fill="#fff"/><path d="M85.447,20.477l.066-.242L84.256,19.9l-.056.242C84.622,20.253,85.034,20.365,85.447,20.477Z" transform="translate(-76.307 -18.05)" fill="#fff"/><path d="M85.8,33.442l-.066-.242-1.237.335.047.232C84.969,33.674,85.381,33.553,85.8,33.442Z" transform="translate(-76.579 -30.114)" fill="#fff"/><path d="M98,42.9l.225.139.656-1.116-.234-.121Z" transform="translate(-88.814 -37.914)" fill="#fff"/><path d="M275.1,278.309l3.121,3.934s1.5,1.767,2.747.642c1.265-1.19.45-2.344-.45-3.366l.487-.381-1.6-.828.309,1.851.5-.4s1.856,1.581.572,2.771c-1.294,1.218-2.831-1.3-3.59-2.213s-1.659-2.018-1.659-2.018H275.1Z" transform="translate(-249.313 -252.42)" fill="#fff"/><path d="M188.525,262.3s.234,3.6-.4,3.45C187.775,265.629,188.535,263.621,188.525,262.3Z" transform="translate(-170.406 -237.908)" fill="#fff"/><g transform="translate(23.988 22.764)"><path d="M256.209,246.207a.4.4,0,0,0,.028.158.254.254,0,0,0,.084.112.575.575,0,0,0,.131.065.831.831,0,0,0,.159.019.749.749,0,0,0,.159-.019.511.511,0,0,0,.1-.056.145.145,0,0,0,.056-.074.273.273,0,0,0,.019-.093.192.192,0,0,0-.037-.139.337.337,0,0,0-.094-.065q-.084-.028-.2-.056c-.075-.019-.169-.047-.281-.074a.513.513,0,0,1-.178-.074.4.4,0,0,1-.112-.1.314.314,0,0,1-.056-.112.541.541,0,0,1-.019-.121.514.514,0,0,1,.047-.214.5.5,0,0,1,.131-.149.679.679,0,0,1,.187-.084.858.858,0,0,1,.216-.028.7.7,0,0,1,.244.037.5.5,0,0,1,.2.1.426.426,0,0,1,.131.158.435.435,0,0,1,.047.223h-.281a.315.315,0,0,0-.1-.223.4.4,0,0,0-.244-.065.387.387,0,0,0-.1.009.281.281,0,0,0-.094.037.252.252,0,0,0-.075.065.186.186,0,0,0-.028.1.156.156,0,0,0,.056.13.5.5,0,0,0,.141.074c.009,0,.028.009.075.019a1.453,1.453,0,0,0,.141.037c.047.009.1.028.15.037a.5.5,0,0,1,.1.028.492.492,0,0,1,.141.065.535.535,0,0,1,.1.1.287.287,0,0,1,.056.121.626.626,0,0,1,.019.13.45.45,0,0,1-.056.232.483.483,0,0,1-.15.158.7.7,0,0,1-.206.093,1.009,1.009,0,0,1-.234.028.815.815,0,0,1-.262-.037.577.577,0,0,1-.216-.1.512.512,0,0,1-.206-.437h.309Z" transform="translate(-255.9 -245.072)" fill="#fff"/><path d="M271.7,245.5h.262v.242H271.7Zm0,.446h.262v1.162H271.7Z" transform="translate(-270.219 -245.435)" fill="#fff"/><path d="M275.7,246.853h.2V246.5h.262v.353h.234v.2h-.234v.7a.054.054,0,0,0,.019.046c.009.009.019.028.037.028a.14.14,0,0,0,.066.009h.056a.12.12,0,0,0,.056-.009v.2c-.028,0-.056.009-.084.009h-.084a.848.848,0,0,1-.169-.019.16.16,0,0,1-.094-.056.177.177,0,0,1-.047-.093c-.009-.037-.009-.084-.019-.13v-.688h-.2v-.186Z" transform="translate(-273.844 -246.342)" fill="#fff"/><path d="M284.072,250.588a.547.547,0,0,0,.019.13.253.253,0,0,0,.056.112.367.367,0,0,0,.094.074.315.315,0,0,0,.141.028.372.372,0,0,0,.188-.047.254.254,0,0,0,.1-.149h.244a.343.343,0,0,1-.075.167.507.507,0,0,1-.281.2.609.609,0,0,1-.187.028.631.631,0,0,1-.244-.046.422.422,0,0,1-.178-.13.667.667,0,0,1-.112-.2.707.707,0,0,1-.038-.251.637.637,0,0,1,.038-.232.667.667,0,0,1,.112-.2.489.489,0,0,1,.178-.13.481.481,0,0,1,.234-.046.562.562,0,0,1,.253.056.733.733,0,0,1,.187.149.646.646,0,0,1,.1.214.759.759,0,0,1,.019.251h-.853Zm.609-.177a.285.285,0,0,0-.028-.121,1,1,0,0,0-.056-.1.337.337,0,0,0-.094-.065.28.28,0,0,0-.244,0,.337.337,0,0,0-.094.065.277.277,0,0,0-.066.1.256.256,0,0,0-.028.121Z" transform="translate(-281.185 -249.426)" fill="#fff"/><path d="M297.334,250.637a.2.2,0,0,0,.084.158.361.361,0,0,0,.178.046.262.262,0,0,0,.084-.009.275.275,0,0,0,.084-.019.168.168,0,0,0,.066-.046.113.113,0,0,0,.028-.084.1.1,0,0,0-.038-.084.246.246,0,0,0-.084-.046c-.038-.009-.075-.028-.122-.037l-.141-.028c-.047-.009-.094-.028-.141-.037a.507.507,0,0,1-.122-.065.228.228,0,0,1-.084-.1.352.352,0,0,1-.028-.149.287.287,0,0,1,.047-.158.326.326,0,0,1,.122-.1.464.464,0,0,1,.159-.056,1.04,1.04,0,0,1,.169-.019,1.157,1.157,0,0,1,.178.019.432.432,0,0,1,.15.065.322.322,0,0,1,.112.112.441.441,0,0,1,.056.167h-.272a.136.136,0,0,0-.084-.121.391.391,0,0,0-.15-.028h-.066a.222.222,0,0,0-.075.019.2.2,0,0,0-.056.037.078.078,0,0,0-.019.065.084.084,0,0,0,.037.074.182.182,0,0,0,.084.046c.038.009.075.028.122.037l.141.028c.047.009.094.028.141.037a.507.507,0,0,1,.122.065.264.264,0,0,1,.084.093.306.306,0,0,1,.038.139.354.354,0,0,1-.047.177.5.5,0,0,1-.122.121.456.456,0,0,1-.169.065,1.279,1.279,0,0,1-.187.019.737.737,0,0,1-.206-.028.362.362,0,0,1-.159-.074.38.38,0,0,1-.112-.13.352.352,0,0,1-.038-.177l.234.009Z" transform="translate(-293.238 -249.335)" fill="#fff"/><path d="M314.356,246.3a.51.51,0,0,1-.2.158.559.559,0,0,1-.253.046.508.508,0,0,1-.206-.037.449.449,0,0,1-.159-.093.33.33,0,0,1-.1-.149.47.47,0,0,1-.038-.2.432.432,0,0,1,.028-.158.39.39,0,0,1,.084-.13.644.644,0,0,1,.122-.1l.141-.084a.51.51,0,0,0-.066-.084l-.056-.084a.277.277,0,0,1-.038-.093.347.347,0,0,1-.009-.1.431.431,0,0,1,.028-.158.354.354,0,0,1,.084-.121.3.3,0,0,1,.131-.074.417.417,0,0,1,.3,0,.369.369,0,0,1,.131.074.417.417,0,0,1,.094.121.441.441,0,0,1,.038.167.3.3,0,0,1-.028.13.693.693,0,0,1-.066.112.443.443,0,0,1-.094.093c-.038.028-.075.046-.112.074l.253.3.028-.084a.481.481,0,0,0,.019-.13h.225a1.329,1.329,0,0,1-.037.2.67.67,0,0,1-.084.186l.309.372h-.319Zm-.459-.567c-.028.019-.047.028-.075.046l-.084.056a.2.2,0,0,0-.066.084.231.231,0,0,0-.028.121.288.288,0,0,0,.075.2.263.263,0,0,0,.187.074.478.478,0,0,0,.122-.019.181.181,0,0,0,.084-.046.159.159,0,0,0,.056-.056.2.2,0,0,0,.037-.056Zm.1-.707a.179.179,0,0,0-.122.046.15.15,0,0,0-.047.13.174.174,0,0,0,.019.074.149.149,0,0,0,.038.065c.019.019.028.046.047.065a.167.167,0,0,1,.047.065.329.329,0,0,1,.075-.046c.019-.019.047-.037.066-.056s.028-.046.047-.065a.271.271,0,0,0,.019-.084.2.2,0,0,0-.047-.13A.156.156,0,0,0,314,245.023Z" transform="translate(-308.01 -244.8)" fill="#fff"/><path d="M332.909,246.207a.4.4,0,0,0,.028.158.254.254,0,0,0,.084.112.575.575,0,0,0,.131.065.831.831,0,0,0,.159.019.748.748,0,0,0,.159-.019.509.509,0,0,0,.1-.056.145.145,0,0,0,.056-.074.274.274,0,0,0,.019-.093.192.192,0,0,0-.037-.139.337.337,0,0,0-.094-.065q-.084-.028-.2-.056c-.075-.019-.169-.047-.281-.074a.513.513,0,0,1-.178-.074.4.4,0,0,1-.112-.1.313.313,0,0,1-.056-.112.541.541,0,0,1-.019-.121.514.514,0,0,1,.047-.214.5.5,0,0,1,.131-.149.679.679,0,0,1,.187-.084.858.858,0,0,1,.216-.028.7.7,0,0,1,.244.037.5.5,0,0,1,.2.1.426.426,0,0,1,.131.158.435.435,0,0,1,.047.223h-.281a.315.315,0,0,0-.1-.223.4.4,0,0,0-.244-.065.387.387,0,0,0-.1.009.282.282,0,0,0-.094.037.252.252,0,0,0-.075.065.186.186,0,0,0-.028.1.156.156,0,0,0,.056.13.5.5,0,0,0,.141.074c.009,0,.028.009.075.019a1.453,1.453,0,0,0,.141.037c.047.009.1.028.15.037a.5.5,0,0,1,.1.028.492.492,0,0,1,.141.065.535.535,0,0,1,.1.1.287.287,0,0,1,.056.121.624.624,0,0,1,.019.13.45.45,0,0,1-.056.232.483.483,0,0,1-.15.158.7.7,0,0,1-.206.093,1.009,1.009,0,0,1-.234.028.815.815,0,0,1-.262-.037.577.577,0,0,1-.216-.1.461.461,0,0,1-.15-.177.563.563,0,0,1-.056-.26h.309Z" transform="translate(-325.41 -245.072)" fill="#fff"/><path d="M348.791,251.037a.721.721,0,0,1-.253-.047.523.523,0,0,1-.187-.13.509.509,0,0,1-.113-.2.708.708,0,0,1-.037-.251.656.656,0,0,1,.037-.242.667.667,0,0,1,.113-.2.559.559,0,0,1,.187-.13.712.712,0,0,1,.506,0,.523.523,0,0,1,.187.13.509.509,0,0,1,.113.2.689.689,0,0,1,.037.242.708.708,0,0,1-.037.251.667.667,0,0,1-.113.2.575.575,0,0,1-.441.177Zm0-.2a.277.277,0,0,0,.15-.037.334.334,0,0,0,.1-.093.325.325,0,0,0,.056-.13.6.6,0,0,0,0-.3.547.547,0,0,0-.056-.13.491.491,0,0,0-.1-.093.321.321,0,0,0-.3,0,.334.334,0,0,0-.1.093.325.325,0,0,0-.056.13.6.6,0,0,0,0,.3.547.547,0,0,0,.056.13.324.324,0,0,0,.1.093A.4.4,0,0,0,348.791,250.842Z" transform="translate(-339.548 -249.335)" fill="#fff"/><path d="M361,246.128h.2v-.093a.465.465,0,0,1,.028-.177.225.225,0,0,1,.075-.1.209.209,0,0,1,.1-.046.5.5,0,0,1,.122-.009.733.733,0,0,1,.178.019v.2c-.019,0-.037-.009-.056-.009h-.066a.159.159,0,0,0-.094.028.1.1,0,0,0-.037.093v.121h.225v.2h-.225v.976h-.262v-.976H361Z" transform="translate(-351.148 -245.616)" fill="#fff"/><path d="M369.1,246.853h.2V246.5h.263v.353h.234v.2h-.234v.7a.071.071,0,0,0,.019.046c.009.009.019.028.038.028a.14.14,0,0,0,.066.009h.056a.119.119,0,0,0,.056-.009v.2c-.028,0-.056.009-.084.009h-.084a.848.848,0,0,1-.169-.019.16.16,0,0,1-.094-.056.177.177,0,0,1-.047-.093c-.009-.037-.009-.084-.019-.13v-.688h-.2v-.186Z" transform="translate(-358.489 -246.342)" fill="#fff"/><path d="M377.3,250.3h.272l.234.865h0l.225-.865h.262l.216.865h0l.234-.865h.262l-.366,1.162h-.262l-.216-.865h0l-.216.865h-.272Z" transform="translate(-365.92 -249.789)" fill="#fff"/><path d="M396.65,251.021c0,.028,0,.056.009.065a.072.072,0,0,0,.047.019h.066v.177c-.009,0-.019.009-.037.009s-.028.009-.047.009-.028.009-.047.009H396.6a.274.274,0,0,1-.131-.028.137.137,0,0,1-.066-.112.527.527,0,0,1-.187.112.956.956,0,0,1-.216.037.734.734,0,0,1-.15-.019.575.575,0,0,1-.131-.065.291.291,0,0,1-.084-.1.387.387,0,0,1-.038-.149.33.33,0,0,1,.038-.177.27.27,0,0,1,.1-.1.416.416,0,0,1,.15-.056c.056-.009.112-.019.159-.028a.74.74,0,0,1,.131-.019.352.352,0,0,0,.112-.019.189.189,0,0,0,.075-.037.113.113,0,0,0,.028-.084.129.129,0,0,0-.028-.084.247.247,0,0,0-.056-.046.178.178,0,0,0-.075-.019c-.028,0-.056-.009-.084-.009a.335.335,0,0,0-.178.047.153.153,0,0,0-.075.139h-.262a.293.293,0,0,1,.056-.186.377.377,0,0,1,.122-.121.706.706,0,0,1,.169-.065.643.643,0,0,1,.188-.019,1.039,1.039,0,0,1,.169.019.416.416,0,0,1,.15.056.4.4,0,0,1,.113.1.283.283,0,0,1,.037.158l.009.586Zm-.262-.325a.317.317,0,0,1-.15.046,1.063,1.063,0,0,0-.169.028.178.178,0,0,0-.075.019.152.152,0,0,0-.066.037.248.248,0,0,0-.047.056.27.27,0,0,0-.019.084.105.105,0,0,0,.028.074.248.248,0,0,0,.056.046c.028.009.047.019.075.028s.056.009.075.009a.355.355,0,0,0,.094-.009.282.282,0,0,0,.094-.037.253.253,0,0,0,.075-.065.186.186,0,0,0,.028-.1V250.7Z" transform="translate(-382.505 -249.607)" fill="#fff"/><path d="M409.209,250.028h.244v.223h0a.218.218,0,0,1,.047-.093.6.6,0,0,1,.075-.084.224.224,0,0,1,.1-.056.239.239,0,0,1,.112-.019h.1v.251c-.019,0-.038-.009-.056-.009h-.056a.261.261,0,0,0-.122.028.417.417,0,0,0-.1.074.5.5,0,0,0-.066.121.447.447,0,0,0-.028.167v.558H409.2l.009-1.162Z" transform="translate(-394.83 -249.516)" fill="#fff"/><path d="M416.972,250.588a.543.543,0,0,0,.019.13.253.253,0,0,0,.056.112.367.367,0,0,0,.094.074.315.315,0,0,0,.141.028.371.371,0,0,0,.188-.047.254.254,0,0,0,.1-.149h.244a.343.343,0,0,1-.075.167.506.506,0,0,1-.281.2.608.608,0,0,1-.187.028.631.631,0,0,1-.244-.046.422.422,0,0,1-.178-.13.667.667,0,0,1-.112-.2.708.708,0,0,1-.038-.251.638.638,0,0,1,.038-.232.667.667,0,0,1,.112-.2.489.489,0,0,1,.178-.13.618.618,0,0,1,.234-.046.562.562,0,0,1,.253.056.733.733,0,0,1,.187.149.645.645,0,0,1,.1.214.758.758,0,0,1,.019.251h-.853Zm.6-.177a.285.285,0,0,0-.028-.121,1.017,1.017,0,0,0-.056-.1.337.337,0,0,0-.094-.065.28.28,0,0,0-.244,0,.336.336,0,0,0-.094.065.276.276,0,0,0-.066.1.255.255,0,0,0-.028.121Z" transform="translate(-401.627 -249.426)" fill="#fff"/><path d="M430.234,250.637a.2.2,0,0,0,.084.158.361.361,0,0,0,.178.046.262.262,0,0,0,.084-.009.275.275,0,0,0,.084-.019.168.168,0,0,0,.066-.046.113.113,0,0,0,.028-.084.1.1,0,0,0-.037-.084.247.247,0,0,0-.084-.046c-.037-.009-.075-.028-.122-.037l-.141-.028c-.047-.009-.094-.028-.141-.037a.507.507,0,0,1-.122-.065.228.228,0,0,1-.084-.1.352.352,0,0,1-.028-.149.286.286,0,0,1,.047-.158.326.326,0,0,1,.122-.1.464.464,0,0,1,.159-.056,1.041,1.041,0,0,1,.169-.019,1.157,1.157,0,0,1,.178.019.432.432,0,0,1,.15.065.322.322,0,0,1,.113.112.442.442,0,0,1,.056.167h-.272a.136.136,0,0,0-.084-.121.391.391,0,0,0-.15-.028h-.066a.222.222,0,0,0-.075.019.2.2,0,0,0-.056.037.078.078,0,0,0-.019.065.084.084,0,0,0,.037.074.182.182,0,0,0,.084.046c.037.009.075.028.122.037l.141.028c.047.009.094.028.141.037a.507.507,0,0,1,.122.065.265.265,0,0,1,.084.093.307.307,0,0,1,.037.139.354.354,0,0,1-.047.177.5.5,0,0,1-.122.121.456.456,0,0,1-.169.065,1.28,1.28,0,0,1-.187.019.737.737,0,0,1-.206-.028.362.362,0,0,1-.159-.074.38.38,0,0,1-.112-.13.352.352,0,0,1-.038-.177l.234.009Z" transform="translate(-413.68 -249.335)" fill="#fff"/></g><path d="M119.109,35.849l-.459.456-.15-.158.45-.446Z" transform="translate(-107.392 -32.381)" fill="#fff"/><path d="M121.109,37.849l-.45.456-.159-.158.459-.446Z" transform="translate(-109.205 -34.195)" fill="#fff"/><path d="M123.2,39.849l-.45.456-.15-.158.45-.446Z" transform="translate(-111.108 -36.009)" fill="#fff"/><path d="M125.209,41.849l-.45.456-.159-.158.45-.446Z" transform="translate(-112.92 -37.823)" fill="#fff"/><path d="M2.118,104.6a1.225,1.225,0,0,1,1.256,1.339A1.52,1.52,0,0,1,1.894,107.3a1.25,1.25,0,0,1-1.237-1.358A1.516,1.516,0,0,1,2.118,104.6ZM.666,108.264H2.981l-.666,7.942H0Z" transform="translate(0 -94.874)" fill="#fff"/><path d="M31.265,146.642c.066.6.581,1,1.369,1,.769,0,1.247-.3,1.284-.781.056-.716-.591-.763-1.622-1.162-1.584-.614-2.4-1.19-2.306-2.39.122-1.488,1.481-2.6,3.571-2.6a2.8,2.8,0,0,1,2.868,1.646l-1.772.846a1.145,1.145,0,0,0-1.256-.911c-.7,0-1.181.316-1.219.763-.056.651.637.809,1.772,1.19,1.594.53,2.325,1.19,2.212,2.455-.131,1.525-1.481,2.567-3.618,2.567-1.687,0-2.85-.66-3.15-1.711Z" transform="translate(-26.644 -127.617)" fill="#fff"/><g transform="translate(9.816 3.905)"><path d="M171.638,281.6c-.009.065-.028.13-.038.2A1.434,1.434,0,0,0,171.638,281.6Z" transform="translate(-165.33 -259.318)" fill="#fff"/><path d="M172.268,128.785c.225-2.706-.956-3.785-3.525-3.785h-1.415l-.628,7.561h1.415v.009C170.721,132.57,172.043,131.472,172.268,128.785Z" transform="translate(-160.89 -117.281)" fill="#fff"/><path d="M122.749,43.487a4.575,4.575,0,0,1,1.256,1.33,3.846,3.846,0,0,0-1.134,2.362s-.534,3.329-2.353,2.213a.261.261,0,0,1-.216-.316c.075-.214.075-.391-.2-.484-.328-.251.309-1.023.309-1.023.947-1.246-1.265-2.818-1.622-3.311a1.373,1.373,0,0,1-.169-1.107l-1.65,2.037a7.3,7.3,0,0,1-1.228,1.395c-.112.074-.216.1-.319.009-.309-.27.544-2.557-.291-2.725-.384-.065-.6.577-.6.577s.375-2.427-.112-2.446-.666,3.943-1.444,3.72.356-2.4-.375-2.576-.684,1.646-1.322,2.371a3.9,3.9,0,0,1-2.456,1.293,2.675,2.675,0,0,1-1.2-.2c-.759-.251-1.331-.279-1.519.093,0,0-.3.465,1.125,1.441,0,0,1.387.707.253,1.293,0,0-1.04.549-.6,1.311s.347.939.037,1.153c-.4.27-1.237.353-1.284,1.032s.8.958.8.958c.778.2.234.865.234.865a2.407,2.407,0,0,1-.956.232c-.553.019-1.256.037-.909.484s1.247.725,1.247,1.2-.356,1.321-.009,1.7.525,1,1.05.976a6.727,6.727,0,0,1,.7-.019l.975-11.764h3.253c2.09,0,3.637.186,4.874,1.162a5.194,5.194,0,0,1,1.8,4.789,6.17,6.17,0,0,1-2.634,4.808,7.872,7.872,0,0,1-4.827,1.1h-2.8a2.756,2.756,0,0,1,2.072,2.669s.872.251.516,2.185c.816-4.027,2.081-3.525,2.081-3.525s1.012.084,1.322,1.73a6.84,6.84,0,0,1-.384,4.278c-.647,2.046-.525,3.348.319,3.329s1.294-1.534,1.1-3.515-.712-5.543-.712-5.543-.159-.614.122-.744c0,0,.469-.325.506.409.009.986.356.753.375.53,0,0,.122.744.684.744s.094-1.544.094-1.544a.434.434,0,0,1,.319-.409c.309-.065.366-.093.591.065a.722.722,0,0,0,.928.009c.337-.3-.366-1.823.131-2.316a.408.408,0,0,1,.591-.186c.131.084.234.093.3.047a4.531,4.531,0,0,1-.3-1.683.413.413,0,0,1,.019-.353.314.314,0,0,1,.009-.093,4.971,4.971,0,0,1,.347-1.46c-.056-1.758,2.118-1.544,1.219-2.855-.187-.232-.328-.391-.431-.521,0,0-.375-.614.028-.558,0,0,1.472.623,2.081-.288a4.556,4.556,0,0,0,.9-2.157,3.337,3.337,0,0,1,1.219-2.195,6.519,6.519,0,0,1,.666,1.609l2.043-3.6Zm-3.121,3.692H118.6V48.2h-.619V47.179h-1.031v-.614h1.031V45.542h.619v1.023h1.031Z" transform="translate(-104.715 -41.999)" fill="#fff"/></g><path d="M262.969,146a1.631,1.631,0,0,0,1.809,1.711,2.243,2.243,0,0,0,1.95-.976l1.79.93a4.523,4.523,0,0,1-3.956,2.055c-2.634,0-4.059-1.711-3.853-4.241a4.52,4.52,0,0,1,4.574-4.278c2.522,0,3.993,1.572,3.768,4.213-.019.2-.047.4-.084.6h-6Zm2.165-2.911a1.873,1.873,0,0,0-1.978,1.525h3.637A1.468,1.468,0,0,0,265.134,143.088Z" transform="translate(-236.254 -128.07)" fill="#fff"/><path d="M349.165,146.642c.066.6.581,1,1.369,1,.769,0,1.247-.3,1.284-.781.056-.716-.591-.763-1.622-1.162-1.584-.614-2.4-1.19-2.306-2.39.122-1.488,1.481-2.6,3.571-2.6a2.8,2.8,0,0,1,2.868,1.646l-1.772.846a1.145,1.145,0,0,0-1.256-.911c-.7,0-1.181.316-1.219.763-.056.651.637.809,1.772,1.19,1.594.53,2.325,1.19,2.212,2.455-.131,1.525-1.481,2.567-3.618,2.567-1.687,0-2.85-.66-3.15-1.711Z" transform="translate(-314.745 -127.617)" fill="#fff"/><path d="M424.418,104.5a1.225,1.225,0,0,1,1.256,1.339,1.52,1.52,0,0,1-1.481,1.358,1.25,1.25,0,0,1-1.237-1.358A1.516,1.516,0,0,1,424.418,104.5Zm-1.453,3.673h2.315l-.666,7.942H422.3Z" transform="translate(-382.714 -94.783)" fill="#fff"/><path d="M462.571,151.922a4.633,4.633,0,0,1-3.412,1.1c-2.587,0-3.871-.809-3.843-2.483h2.55c.019.614.478.893,1.425.893,1.35,0,1.847-.7,1.959-2.1l.094-1.125a3.223,3.223,0,0,1-2.793,1.441c-2.165,0-3.487-1.609-3.271-4.231.225-2.65,1.715-4.213,3.974-4.213a2.709,2.709,0,0,1,2.559,1.572l.113-1.311h2.184l-.656,7.812A3.672,3.672,0,0,1,462.571,151.922Zm-2.709-8.769a2.186,2.186,0,0,0-2.222,2.269c-.113,1.395.544,2.241,1.828,2.241a2.153,2.153,0,0,0,2.2-2.241C461.8,143.981,461.062,143.153,459.862,143.153Z" transform="translate(-412.581 -128.07)" fill="#fff"/><path d="M549.447,141.46h2.268l-.1,1.246A3.941,3.941,0,0,1,554.7,141.2a2.432,2.432,0,0,1,2.447,1.265,3.922,3.922,0,0,1,.159,2.055c-.009.084-.009.167-.019.251l-.384,4.64h-2.315l.328-3.934c.122-1.507.066-2.409-1.322-2.409a2.033,2.033,0,0,0-1.612.763,2.843,2.843,0,0,0-.544,1.758c-.009.1-.019.2-.028.316l-.291,3.5H548.8Z" transform="translate(-497.357 -128.07)" fill="#fff"/></g></svg>